<svg version="1.1" id="Layer_1" xmlns="http://www.w3.org/2000/svg" x="0" y="0" width="2097.059" height="1170.589" xml:space="preserve"><linearGradient id="SVGID_1_" gradientUnits="userSpaceOnUse" x1="-367.31" y1="-727.251" x2="-223.481" y2="-809.171" gradientTransform="translate(4283.157 8494.982) scale(10.368)"><stop offset="0" style="stop-color:#29abe2"/><stop offset="1" style="stop-color:#9f77a6"/></linearGradient><path fill="url('#SVGID_1_')" d="M2037.607 106.679c-.006-40.368-32.736-73.089-73.104-73.083a73.105 73.105 0 0 0-38.352 10.875L219.682 1056.699c-17.607 8.589-24.919 29.825-16.33 47.435 8.59 17.606 29.826 24.918 47.434 16.329l1.349-.727 1741.823-946.599a72.15 72.15 0 0 0 8.709-4.771 72.565 72.565 0 0 0 34.94-61.687z"/><linearGradient id="SVGID_2_" gradientUnits="userSpaceOnUse" x1="-348.514" y1="-788.358" x2="-231.155" y2="-808.638" gradientTransform="translate(4283.157 8494.982) scale(10.368)"><stop offset="0" style="stop-color:#ea0e7d"/><stop offset="1" style="stop-color:#9f77a6"/></linearGradient><path fill="url('#SVGID_2_')" d="M2037.607 106.679c0-40.368-32.726-73.095-73.095-73.095a73.432 73.432 0 0 0-7.879 0L656.174 218.965c-57.123 3.968-100.213 53.492-96.245 110.615 3.969 57.123 53.493 100.213 110.616 96.245a103.627 103.627 0 0 0 24.095-4.582l1279.204-242.092a72.96 72.96 0 0 0 7.879-1.451c32.763-7.976 55.838-37.302 55.884-71.021z"/><linearGradient id="SVGID_3_" gradientUnits="userSpaceOnUse" x1="-351.812" y1="-792.159" x2="-313.832" y2="-726.28" gradientTransform="translate(4283.157 8494.982) scale(10.368)"><stop offset="0" style="stop-color:#ea0e7d"/><stop offset="1" style="stop-color:#5d2e8e"/></linearGradient><path fill="url('#SVGID_3_')" d="M1160.681 962.558a130.209 130.209 0 0 0-23.12-71.229L759.025 285.111c-18.724-54.14-77.792-82.851-131.933-64.126s-82.852 77.793-64.126 131.933a103.646 103.646 0 0 0 17.521 33.696l327.732 627.782a130.294 130.294 0 0 0 12.026 23.017c39.643 60.487 120.813 77.387 181.301 37.743a130.938 130.938 0 0 0 59.135-112.598z"/><linearGradient id="SVGID_4_" gradientUnits="userSpaceOnUse" x1="-401.568" y1="-784.112" x2="-312.647" y2="-725.431" gradientTransform="translate(4283.157 8494.982) scale(10.368)"><stop offset="0" style="stop-color:#4ac7f4"/><stop offset="1" style="stop-color:#5d2e8e"/></linearGradient><path fill="url('#SVGID_4_')" d="M1160.681 962.558a130.737 130.737 0 0 0-57.646-105.339 130.836 130.836 0 0 0-20.736-11.303L137.153 323.784c-21.788-12.97-49.965-5.821-62.934 15.968-12.97 21.786-5.821 49.964 15.967 62.934l845.717 654.532c50.277 51.904 133.112 53.227 185.02 2.949a130.843 130.843 0 0 0 39.758-97.609z"/><path fill="#010101" d="M584.739 413.779h528.977v528.977H584.739z"/><path fill="#FFF" d="M630.358 843.533h198.34v33.073h-198.34z"/><g fill="#FFF"><path d="m628.181 553.021 15.345-14.516a17.41 17.41 0 0 0 13.582 7.982c5.72-.269 10.139-5.123 9.87-10.843a10.993 10.993 0 0 0-.124-1.185v-54.535h23.742v54.64a32.034 32.034 0 0 1-8.502 24.261 32.446 32.446 0 0 1-23.64 8.709 35.242 35.242 0 0 1-30.273-14.513zM696.091 479.927h69.361v20.218H719.73v13.167h41.472v18.87H719.73v13.686h46.345v20.736h-69.983v-86.677zM796.765 500.767h-25.816V480.03h75.479v20.736h-25.816v65.317h-23.846l-.001-65.316zM630.358 586.303h44.168a32.236 32.236 0 0 1 23.535 7.672 19.38 19.38 0 0 1 5.495 13.997 19.908 19.908 0 0 1-13.271 19.181c10.018 1.779 17.265 10.563 17.107 20.736 0 14.826-12.027 23.741-32.66 23.741h-44.375v-86.262l.001.935zm49.767 26.645c0-4.77-3.836-7.36-10.368-7.36h-16.175v14.825h15.448c7.259 0 11.405-2.487 11.405-7.465h-.31zm-8.294 24.469h-18.248v15.863h18.56c7.361 0 11.405-2.8 11.405-7.88-.003-4.976-4.149-7.983-11.717-7.983zM711.021 586.303h40.954a38.155 38.155 0 0 1 28.098 9.228 26.957 26.957 0 0 1 7.672 20.114 27.269 27.269 0 0 1-17.729 26.646l20.736 30.067h-27.891l-17.419-26.128h-10.368v26.024h-23.846V585.99l-.207.313zm39.813 41.471c5.56 1.377 11.181-2.013 12.558-7.571.227-.914.327-1.854.3-2.797.184-5.723-4.31-10.511-10.032-10.693a10.4 10.4 0 0 0-2.928.326h-15.76v20.735h15.862z"/><path d="M815.531 585.681h23.017l36.703 86.884h-25.608l-6.117-15.552h-33.488l-6.221 15.241h-24.883l36.597-86.573zm20.736 52.669-9.644-24.364-9.746 24.364h19.39zM878.049 586.303h23.847v85.951h-23.847V585.99v.313zM907.495 586.303h22.291l35.459 45.619v-45.619h23.64v85.951H968.15l-36.91-47.278v47.278h-23.742V585.99v.313h-.003zM990.439 659.708l13.271-15.862a44.674 44.674 0 0 0 27.994 10.367c6.531 0 10.368-2.177 10.368-5.909 0-3.732-2.8-5.494-14.618-8.397-18.353-4.146-32.557-9.331-32.557-26.957 0-15.967 12.648-27.579 33.385-27.579a54.228 54.228 0 0 1 35.459 11.405l-11.924 16.899a42.3 42.3 0 0 0-24.156-8.502c-5.807 0-8.605 2.385-8.605 5.495 0 3.939 3.007 5.702 15.034 8.397 19.698 4.354 32.036 10.368 32.036 26.853 0 17.627-13.894 28.099-34.836 28.099a60.458 60.458 0 0 1-40.851-14.309z"/></g></svg>